<svg xmlns="http://www.w3.org/2000/svg" width="17.143" height="15" viewBox="0 0 17.143 15"><defs><style>.a{opacity:0.3;}</style></defs><path class="a" d="M8.336,9.8a2.152,2.152,0,0,0,1.528-.638A2.189,2.189,0,0,0,10.5,7.618c0-.064,0-.127-.008-.19L8.148,9.789C8.21,9.795,8.273,9.8,8.336,9.8ZM15.49.876,14.666.046a.153.153,0,0,0-.218,0l-2.11,2.128a8.441,8.441,0,0,0-3.925-.9q-5.564,0-8.3,5.844a1.182,1.182,0,0,0,0,1,11.68,11.68,0,0,0,2.635,3.726L.705,13.9a.157.157,0,0,0,0,.22l.824.831a.153.153,0,0,0,.218,0L15.49,1.1a.157.157,0,0,0,0-.22ZM4.94,7.618A3.447,3.447,0,0,1,5.381,5.93,3.412,3.412,0,0,1,6.589,4.68,3.372,3.372,0,0,1,9.936,4.6L9,5.542a2.15,2.15,0,0,0-2.189.535,2.194,2.194,0,0,0-.53,2.207l-.938.946a3.43,3.43,0,0,1-.4-1.613Z" transform="translate(0)"/><path class="a" d="M12.208,3.462A11.718,11.718,0,0,0,9.731,0L6.89,2.752a3.263,3.263,0,0,1,.153,1.9A3.332,3.332,0,0,1,6.1,6.33a3.5,3.5,0,0,1-1.73.911,3.575,3.575,0,0,1-1.963-.148L0,9.427a9.017,9.017,0,0,0,3.73.752q5.681,0,8.478-5.733a1.119,1.119,0,0,0,0-.983Z" transform="translate(4.821 3.75)"/></svg>